#define map1_width 128
#define map1_height 64
static unsigned char map1_bits[] = {
   0x00, 0x00, 0x00, 0x00, 0x00, 0x00, 0x40, 0x00, 0x00, 0x00, 0x10, 0x00,
   0x00, 0x00, 0x00, 0x00, 0x00, 0x00, 0x00, 0x00, 0x00, 0x00, 0x40, 0x00,
   0x00, 0x00, 0x10, 0x00, 0x00, 0x00, 0x00, 0x00, 0x00, 0x00, 0x00, 0x00,
   0x00, 0x00, 0x40, 0x00, 0x00, 0x00, 0x10, 0x00, 0x00, 0x00, 0x00, 0x00,
   0x00, 0x00, 0x00, 0x00, 0x00, 0x00, 0x40, 0x00, 0x00, 0x00, 0x10, 0x00,
   0x00, 0x00, 0x00, 0x00, 0x00, 0x00, 0x00, 0x00, 0x00, 0x00, 0x40, 0x00,
   0x00, 0x00, 0x10, 0x00, 0x00, 0x00, 0x00, 0x00, 0x00, 0x00, 0x00, 0x00,
   0x00, 0x00, 0x40, 0x00, 0x00, 0x00, 0x10, 0x00, 0x00, 0x00, 0x00, 0x00,
   0x00, 0x00, 0x00, 0x00, 0x00, 0x00, 0x40, 0x00, 0x00, 0x00, 0x10, 0x00,
   0x00, 0x00, 0x00, 0x00, 0x00, 0x00, 0x00, 0x00, 0x00, 0x00, 0x40, 0x00,
   0x00, 0x00, 0x10, 0x00, 0x00, 0x00, 0x00, 0x00, 0x00, 0x00, 0x00, 0x00,
   0x00, 0x00, 0x40, 0x00, 0x00, 0x00, 0x10, 0x00, 0x00, 0x00, 0x00, 0x00,
   0x00, 0x00, 0x00, 0x00, 0x00, 0x00, 0x40, 0x00, 0x00, 0x00, 0x10, 0x00,
   0x00, 0x00, 0x00, 0x00, 0x00, 0xfc, 0xff, 0xff, 0xff, 0x0f, 0x40, 0x00,
   0xfe, 0xff, 0x1f, 0x80, 0xff, 0xff, 0x3f, 0x00, 0x00, 0x04, 0x00, 0x00,
   0x00, 0x08, 0x40, 0x00, 0x00, 0x00, 0x00, 0x80, 0x00, 0x00, 0x20, 0x00,
   0x00, 0x04, 0x00, 0x00, 0x00, 0x08, 0x40, 0x00, 0x00, 0x00, 0x00, 0x80,
   0x00, 0x00, 0x20, 0x00, 0x00, 0x04, 0x00, 0x00, 0x00, 0x08, 0x40, 0x00,
   0x00, 0x00, 0x00, 0x80, 0x00, 0x00, 0x20, 0x00, 0x00, 0x04, 0x00, 0x00,
   0x00, 0x08, 0x40, 0x00, 0x00, 0x00, 0x00, 0x80, 0x00, 0x00, 0x20, 0x00,
   0x00, 0x04, 0x00, 0x00, 0x00, 0x08, 0x40, 0x00, 0x00, 0x00, 0x00, 0x80,
   0x00, 0x00, 0x20, 0x00, 0x00, 0x04, 0x00, 0x00, 0x00, 0x08, 0x40, 0x00,
   0x00, 0x00, 0x00, 0x80, 0x00, 0x00, 0x20, 0x00, 0x00, 0x04, 0x00, 0x00,
   0x00, 0x08, 0x40, 0x00, 0x00, 0x00, 0x00, 0x80, 0x00, 0x00, 0x20, 0x00,
   0x00, 0x04, 0x00, 0x00, 0x00, 0x08, 0x40, 0x00, 0x00, 0x00, 0x00, 0x80,
   0x00, 0x00, 0x20, 0x00, 0x00, 0x04, 0x00, 0x00, 0x00, 0x08, 0x40, 0x00,
   0x00, 0x00, 0x00, 0x80, 0x00, 0x00, 0x20, 0x00, 0x00, 0x04, 0x00, 0x00,
   0x00, 0x08, 0x40, 0x00, 0x00, 0x00, 0x00, 0x80, 0x00, 0x00, 0x20, 0x00,
   0x00, 0x04, 0xe0, 0xff, 0x01, 0x08, 0x40, 0x00, 0x00, 0xfe, 0x1f, 0x80,
   0x00, 0x04, 0x20, 0x00, 0x00, 0x04, 0x20, 0x00, 0x00, 0x08, 0x00, 0x00,
   0x00, 0x02, 0x00, 0x80, 0x00, 0x04, 0x20, 0x00, 0x00, 0x04, 0x20, 0x00,
   0x00, 0x08, 0x00, 0x00, 0x00, 0x02, 0x00, 0x80, 0x00, 0x04, 0x20, 0x00,
   0x00, 0x04, 0x20, 0x00, 0x00, 0x08, 0x00, 0x00, 0x00, 0x02, 0x00, 0x80,
   0x00, 0x04, 0x20, 0x00, 0x00, 0x04, 0x20, 0x00, 0x00, 0x08, 0x00, 0x00,
   0x00, 0x02, 0x00, 0x80, 0x00, 0x04, 0x20, 0x00, 0x00, 0x04, 0x20, 0x00,
   0x00, 0x08, 0x00, 0x00, 0x00, 0x02, 0x00, 0x80, 0x00, 0x04, 0x20, 0x00,
   0x00, 0x00, 0x20, 0x00, 0x00, 0x08, 0x00, 0x00, 0x00, 0x02, 0x00, 0x80,
   0x00, 0x04, 0x00, 0x00, 0x00, 0x00, 0x20, 0x00, 0x00, 0x08, 0x00, 0x00,
   0x00, 0x02, 0x00, 0x80, 0x00, 0x04, 0x00, 0x00, 0x00, 0x00, 0x20, 0x00,
   0x00, 0x08, 0x00, 0x00, 0x00, 0x02, 0x00, 0x80, 0x00, 0x04, 0x00, 0x00,
   0x00, 0x00, 0x20, 0x00, 0x00, 0x08, 0x00, 0x00, 0x00, 0x02, 0x00, 0x80,
   0x00, 0x04, 0x00, 0x00, 0x00, 0x00, 0x20, 0x00, 0x00, 0x08, 0x00, 0x00,
   0x00, 0x02, 0x00, 0x80, 0x00, 0x04, 0x00, 0x00, 0x00, 0x00, 0x20, 0x00,
   0x01, 0x00, 0x40, 0x00, 0x00, 0x00, 0x10, 0x00, 0x00, 0x04, 0x00, 0x00,
   0x00, 0x00, 0x20, 0x00, 0x01, 0x00, 0x40, 0x00, 0x00, 0x00, 0x10, 0x00,
   0x00, 0x04, 0x00, 0x00, 0x00, 0x00, 0x20, 0x00, 0x01, 0x00, 0x40, 0x00,
   0x00, 0x00, 0x10, 0x00, 0x00, 0x04, 0x00, 0x00, 0x00, 0x00, 0x20, 0x00,
   0x01, 0x00, 0x40, 0x00, 0x00, 0x00, 0x10, 0x00, 0x00, 0x04, 0x00, 0x00,
   0x00, 0x00, 0x20, 0x00, 0x01, 0x00, 0x40, 0x00, 0x00, 0x00, 0x10, 0x00,
   0x00, 0x04, 0x00, 0x00, 0x00, 0x04, 0x20, 0x00, 0x01, 0x00, 0x40, 0x00,
   0x00, 0x00, 0x10, 0x00, 0x00, 0x04, 0x20, 0x00, 0x00, 0x04, 0x20, 0x00,
   0x01, 0x00, 0x40, 0x00, 0x00, 0x00, 0x10, 0x00, 0x00, 0x04, 0x20, 0x00,
   0x00, 0x04, 0x20, 0x00, 0x01, 0x00, 0x40, 0x00, 0x00, 0x00, 0x10, 0x00,
   0x00, 0x04, 0x20, 0x00, 0x00, 0x04, 0x20, 0x00, 0x01, 0x00, 0x40, 0x00,
   0x00, 0x00, 0x10, 0x00, 0x00, 0x04, 0x20, 0x00, 0x00, 0x04, 0x20, 0x00,
   0x01, 0x00, 0x40, 0x00, 0x00, 0x00, 0x10, 0x00, 0x00, 0x04, 0x20, 0x00,
   0x00, 0x04, 0x20, 0x00, 0x01, 0xf8, 0x7f, 0x00, 0x00, 0x02, 0x10, 0x80,
   0xff, 0x07, 0x20, 0x00, 0x00, 0x04, 0x00, 0x00, 0x01, 0x00, 0x00, 0x00,
   0x00, 0x02, 0x10, 0x00, 0x00, 0x00, 0x20, 0x00, 0x00, 0x04, 0x00, 0x00,
   0x01, 0x00, 0x00, 0x00, 0x00, 0x02, 0x10, 0x00, 0x00, 0x00, 0x20, 0x00,
   0x00, 0x04, 0x00, 0x00, 0x01, 0x00, 0x00, 0x00, 0x00, 0x02, 0x10, 0x00,
   0x00, 0x00, 0x20, 0x00, 0x00, 0x04, 0x00, 0x00, 0x01, 0x00, 0x00, 0x00,
   0x00, 0x02, 0x10, 0x00, 0x00, 0x00, 0x20, 0x00, 0x00, 0x04, 0x00, 0x00,
   0x01, 0x00, 0x00, 0x00, 0x00, 0x02, 0x10, 0x00, 0x00, 0x00, 0x20, 0x00,
   0x00, 0x04, 0x00, 0x00, 0x01, 0x00, 0x00, 0x00, 0x00, 0x02, 0x10, 0x00,
   0x00, 0x00, 0x20, 0x00, 0x00, 0x04, 0x00, 0x00, 0x01, 0x00, 0x00, 0x00,
   0x00, 0x02, 0x10, 0x00, 0x00, 0x00, 0x20, 0x00, 0x00, 0x04, 0x00, 0x00,
   0x01, 0x00, 0x00, 0x00, 0x00, 0x02, 0x10, 0x00, 0x00, 0x00, 0x20, 0x00,
   0x00, 0x04, 0x00, 0x00, 0x01, 0x00, 0x00, 0x00, 0x00, 0x02, 0x10, 0x00,
   0x00, 0x00, 0x20, 0x00, 0x00, 0x04, 0x00, 0x00, 0x01, 0x00, 0x00, 0x00,
   0x00, 0x02, 0x10, 0x00, 0x00, 0x00, 0x20, 0x00, 0x00, 0xfc, 0xff, 0xff,
   0x01, 0xf8, 0xff, 0x7f, 0x00, 0x02, 0xf0, 0xff, 0xff, 0xff, 0x3f, 0x00,
   0x00, 0x00, 0x00, 0x00, 0x00, 0x08, 0x00, 0x00, 0x00, 0x02, 0x00, 0x00,
   0x00, 0x00, 0x00, 0x00, 0x00, 0x00, 0x00, 0x00, 0x00, 0x08, 0x00, 0x00,
   0x00, 0x02, 0x00, 0x00, 0x00, 0x00, 0x00, 0x00, 0x00, 0x00, 0x00, 0x00,
   0x00, 0x08, 0x00, 0x00, 0x00, 0x02, 0x00, 0x00, 0x00, 0x00, 0x00, 0x00,
   0x00, 0x00, 0x00, 0x00, 0x00, 0x08, 0x00, 0x00, 0x00, 0x02, 0x00, 0x00,
   0x00, 0x00, 0x00, 0x00, 0x00, 0x00, 0x00, 0x00, 0x00, 0x08, 0x00, 0x00,
   0x00, 0x02, 0x00, 0x00, 0x00, 0x00, 0x00, 0x00, 0x00, 0x00, 0x00, 0x00,
   0x00, 0x08, 0x00, 0x00, 0x00, 0x02, 0x00, 0x00, 0x00, 0x00, 0x00, 0x00,
   0x00, 0x00, 0x00, 0x00, 0x00, 0x08, 0x00, 0x00, 0x00, 0x02, 0x00, 0x00,
   0x00, 0x00, 0x00, 0x00, 0x00, 0x00, 0x00, 0x00, 0x00, 0x08, 0x00, 0x00,
   0x00, 0x02, 0x00, 0x00, 0x00, 0x00, 0x00, 0x00, 0x00, 0x00, 0x00, 0x00,
   0x00, 0x08, 0x00, 0x00, 0x00, 0x02, 0x00, 0x00, 0x00, 0x00, 0x00, 0x00,
   0x00, 0x00, 0x00, 0x00, 0x00, 0x08, 0x00, 0x00, 0x00, 0x02, 0x00, 0x00,
   0x00, 0x00, 0x00, 0x00 };
