#define mapMall_width 128
#define mapMall_height 64
static unsigned char mapMall_bits[] = {
   0x00, 0x04, 0x20, 0x00, 0x01, 0x08, 0x40, 0x00, 0x00, 0x02, 0x10, 0x80,
   0x00, 0x04, 0x20, 0x00, 0x00, 0x04, 0x20, 0x00, 0x01, 0x08, 0x40, 0x00,
   0x00, 0x02, 0x10, 0x80, 0x00, 0x04, 0x20, 0x00, 0x00, 0x04, 0x20, 0x00,
   0x01, 0x08, 0x40, 0x00, 0x00, 0x02, 0x10, 0x80, 0x00, 0x04, 0x20, 0x00,
   0x00, 0x04, 0x20, 0x00, 0x01, 0x08, 0x40, 0x00, 0x00, 0x02, 0x10, 0x80,
   0x00, 0x04, 0x20, 0x00, 0x00, 0x04, 0x20, 0x00, 0x01, 0x08, 0x40, 0x00,
   0x00, 0x02, 0x10, 0x80, 0x00, 0x04, 0x20, 0x00, 0x00, 0x04, 0x20, 0x00,
   0x01, 0x08, 0x40, 0x00, 0x00, 0x02, 0x10, 0x80, 0x00, 0x04, 0x20, 0x00,
   0x00, 0x04, 0x20, 0x00, 0x01, 0x08, 0x40, 0x00, 0x00, 0x02, 0x10, 0x80,
   0x00, 0x04, 0x20, 0x00, 0x00, 0x04, 0x20, 0x00, 0x01, 0x08, 0x40, 0x00,
   0x00, 0x02, 0x10, 0x80, 0x00, 0x04, 0x20, 0x00, 0x00, 0x04, 0x20, 0x00,
   0x01, 0x08, 0x40, 0x00, 0x00, 0x02, 0x10, 0x80, 0x00, 0x04, 0x20, 0x00,
   0x00, 0x04, 0x20, 0x00, 0x01, 0x08, 0x40, 0x00, 0x00, 0x02, 0x10, 0x80,
   0x00, 0x04, 0x20, 0x00, 0xff, 0xff, 0xff, 0xff, 0xff, 0xff, 0xff, 0xff,
   0xff, 0xff, 0xff, 0xff, 0xff, 0xff, 0xff, 0xff, 0x00, 0x04, 0x20, 0x00,
   0x01, 0x08, 0x40, 0x00, 0x00, 0x02, 0x10, 0x80, 0x00, 0x04, 0x20, 0x00,
   0x00, 0x04, 0x20, 0x00, 0x01, 0x08, 0x40, 0x00, 0x00, 0x02, 0x10, 0x80,
   0x00, 0x04, 0x20, 0x00, 0x00, 0x04, 0x20, 0x00, 0x01, 0x08, 0x40, 0x00,
   0x00, 0x02, 0x10, 0x80, 0x00, 0x04, 0x20, 0x00, 0x00, 0x04, 0x20, 0x00,
   0x01, 0x08, 0x40, 0x00, 0x00, 0x02, 0x10, 0x80, 0x00, 0x04, 0x20, 0x00,
   0x00, 0x04, 0x20, 0x00, 0x01, 0x08, 0x40, 0x00, 0x00, 0x02, 0x10, 0x80,
   0x00, 0x04, 0x20, 0x00, 0x00, 0x04, 0x20, 0x00, 0x01, 0x08, 0x40, 0x00,
   0x00, 0x02, 0x10, 0x80, 0x00, 0x04, 0x20, 0x00, 0x00, 0x04, 0x20, 0x00,
   0x01, 0x08, 0x40, 0x00, 0x00, 0x02, 0x10, 0x80, 0x00, 0x04, 0x20, 0x00,
   0x00, 0x04, 0x20, 0x00, 0x01, 0x08, 0x40, 0x00, 0x00, 0x02, 0x10, 0x80,
   0x00, 0x04, 0x20, 0x00, 0x00, 0x04, 0x20, 0x00, 0x01, 0x08, 0x40, 0x00,
   0x00, 0x02, 0x10, 0x80, 0x00, 0x04, 0x20, 0x00, 0x00, 0x04, 0x20, 0x00,
   0x01, 0x08, 0x40, 0x00, 0x00, 0x02, 0x10, 0x80, 0x00, 0x04, 0x20, 0x00,
   0xff, 0xff, 0xff, 0xff, 0xff, 0xff, 0xff, 0xff, 0xff, 0xff, 0xff, 0xff,
   0xff, 0xff, 0xff, 0xff, 0x00, 0x04, 0x20, 0x00, 0x01, 0x08, 0x40, 0x00,
   0x00, 0x02, 0x10, 0x80, 0x00, 0x04, 0x20, 0x00, 0x00, 0x04, 0x20, 0x00,
   0x01, 0x08, 0x40, 0x00, 0x00, 0x02, 0x10, 0x80, 0x00, 0x04, 0x20, 0x00,
   0x00, 0x04, 0x20, 0x00, 0x01, 0x08, 0x40, 0x00, 0x00, 0x02, 0x10, 0x80,
   0x00, 0x04, 0x20, 0x00, 0x00, 0x04, 0x20, 0x00, 0x01, 0x08, 0x40, 0x00,
   0x00, 0x02, 0x10, 0x80, 0x00, 0x04, 0x20, 0x00, 0x00, 0x04, 0x20, 0x00,
   0x01, 0x08, 0x40, 0x00, 0x00, 0x02, 0x10, 0x80, 0x00, 0x04, 0x20, 0x00,
   0x00, 0x00, 0x20, 0x00, 0x01, 0x08, 0x40, 0x00, 0x00, 0x02, 0x10, 0x80,
   0x00, 0x04, 0x00, 0x00, 0x00, 0x00, 0x20, 0x00, 0x01, 0x08, 0x40, 0x00,
   0x00, 0x02, 0x10, 0x80, 0x00, 0x04, 0x00, 0x00, 0x00, 0x00, 0x20, 0x00,
   0x01, 0x08, 0x40, 0x00, 0x00, 0x02, 0x10, 0x80, 0x00, 0x04, 0x00, 0x00,
   0x00, 0x00, 0x20, 0x00, 0x01, 0x08, 0x40, 0x00, 0x00, 0x02, 0x10, 0x80,
   0x00, 0x04, 0x00, 0x00, 0x00, 0x00, 0x20, 0x00, 0x01, 0x08, 0x40, 0x00,
   0x00, 0x02, 0x10, 0x80, 0x00, 0x04, 0x00, 0x00, 0x00, 0x00, 0x20, 0x00,
   0x01, 0x08, 0x40, 0x00, 0x00, 0x02, 0x10, 0x80, 0x00, 0x04, 0x00, 0x00,
   0x00, 0x00, 0x20, 0x00, 0x01, 0x08, 0x40, 0x00, 0x00, 0x02, 0x10, 0x80,
   0x00, 0x04, 0x00, 0x00, 0x00, 0x00, 0x20, 0x00, 0x01, 0x08, 0x40, 0x00,
   0x00, 0x02, 0x10, 0x80, 0x00, 0x04, 0x00, 0x00, 0x00, 0x00, 0x20, 0x00,
   0x01, 0x08, 0x40, 0x00, 0x00, 0x02, 0x10, 0x80, 0x00, 0x04, 0x00, 0x00,
   0x00, 0x00, 0x20, 0x00, 0x01, 0x08, 0x40, 0x00, 0x00, 0x02, 0x10, 0x80,
   0x00, 0x04, 0x00, 0x00, 0x00, 0x04, 0x20, 0x00, 0x01, 0x08, 0x40, 0x00,
   0x00, 0x02, 0x10, 0x80, 0x00, 0x04, 0x20, 0x00, 0x00, 0x04, 0x20, 0x00,
   0x01, 0x08, 0x40, 0x00, 0x00, 0x02, 0x10, 0x80, 0x00, 0x04, 0x20, 0x00,
   0x00, 0x04, 0x20, 0x00, 0x01, 0x08, 0x40, 0x00, 0x00, 0x02, 0x10, 0x80,
   0x00, 0x04, 0x20, 0x00, 0x00, 0x04, 0x20, 0x00, 0x01, 0x08, 0x40, 0x00,
   0x00, 0x02, 0x10, 0x80, 0x00, 0x04, 0x20, 0x00, 0x00, 0x04, 0x20, 0x00,
   0x01, 0x08, 0x40, 0x00, 0x00, 0x02, 0x10, 0x80, 0x00, 0x04, 0x20, 0x00,
   0xff, 0xff, 0xff, 0xff, 0xff, 0xff, 0xff, 0xff, 0xff, 0xff, 0xff, 0xff,
   0xff, 0xff, 0xff, 0xff, 0x00, 0x04, 0x20, 0x00, 0x01, 0x08, 0x40, 0x00,
   0x00, 0x02, 0x10, 0x80, 0x00, 0x04, 0x20, 0x00, 0x00, 0x04, 0x20, 0x00,
   0x01, 0x08, 0x40, 0x00, 0x00, 0x02, 0x10, 0x80, 0x00, 0x04, 0x20, 0x00,
   0x00, 0x04, 0x20, 0x00, 0x01, 0x08, 0x40, 0x00, 0x00, 0x02, 0x10, 0x80,
   0x00, 0x04, 0x20, 0x00, 0x00, 0x04, 0x20, 0x00, 0x01, 0x08, 0x40, 0x00,
   0x00, 0x02, 0x10, 0x80, 0x00, 0x04, 0x20, 0x00, 0x00, 0x04, 0x20, 0x00,
   0x01, 0x08, 0x40, 0x00, 0x00, 0x02, 0x10, 0x80, 0x00, 0x04, 0x20, 0x00,
   0x00, 0x04, 0x20, 0x00, 0x01, 0x08, 0x40, 0x00, 0x00, 0x02, 0x10, 0x80,
   0x00, 0x04, 0x20, 0x00, 0x00, 0x04, 0x20, 0x00, 0x01, 0x08, 0x40, 0x00,
   0x00, 0x02, 0x10, 0x80, 0x00, 0x04, 0x20, 0x00, 0x00, 0x04, 0x20, 0x00,
   0x01, 0x08, 0x40, 0x00, 0x00, 0x02, 0x10, 0x80, 0x00, 0x04, 0x20, 0x00,
   0x00, 0x04, 0x20, 0x00, 0x01, 0x08, 0x40, 0x00, 0x00, 0x02, 0x10, 0x80,
   0x00, 0x04, 0x20, 0x00, 0x00, 0x04, 0x20, 0x00, 0x01, 0x08, 0x40, 0x00,
   0x00, 0x02, 0x10, 0x80, 0x00, 0x04, 0x20, 0x00, 0xff, 0xff, 0xff, 0xff,
   0xff, 0xff, 0xff, 0xff, 0xff, 0xff, 0xff, 0xff, 0xff, 0xff, 0xff, 0xff,
   0x00, 0x04, 0x20, 0x00, 0x01, 0x08, 0x40, 0x00, 0x00, 0x02, 0x10, 0x80,
   0x00, 0x04, 0x20, 0x00, 0x00, 0x04, 0x20, 0x00, 0x01, 0x08, 0x40, 0x00,
   0x00, 0x02, 0x10, 0x80, 0x00, 0x04, 0x20, 0x00, 0x00, 0x04, 0x20, 0x00,
   0x01, 0x08, 0x40, 0x00, 0x00, 0x02, 0x10, 0x80, 0x00, 0x04, 0x20, 0x00,
   0x00, 0x04, 0x20, 0x00, 0x01, 0x08, 0x40, 0x00, 0x00, 0x02, 0x10, 0x80,
   0x00, 0x04, 0x20, 0x00, 0x00, 0x04, 0x20, 0x00, 0x01, 0x08, 0x40, 0x00,
   0x00, 0x02, 0x10, 0x80, 0x00, 0x04, 0x20, 0x00, 0x00, 0x04, 0x20, 0x00,
   0x01, 0x08, 0x40, 0x00, 0x00, 0x02, 0x10, 0x80, 0x00, 0x04, 0x20, 0x00,
   0x00, 0x04, 0x20, 0x00, 0x01, 0x08, 0x40, 0x00, 0x00, 0x02, 0x10, 0x80,
   0x00, 0x04, 0x20, 0x00, 0x00, 0x04, 0x20, 0x00, 0x01, 0x08, 0x40, 0x00,
   0x00, 0x02, 0x10, 0x80, 0x00, 0x04, 0x20, 0x00, 0x00, 0x04, 0x20, 0x00,
   0x01, 0x08, 0x40, 0x00, 0x00, 0x02, 0x10, 0x80, 0x00, 0x04, 0x20, 0x00,
   0x00, 0x04, 0x20, 0x00, 0x01, 0x08, 0x40, 0x00, 0x00, 0x02, 0x10, 0x80,
   0x00, 0x04, 0x20, 0x00 };
