#define packmanRight_width 10
#define packmanRight_height 10
static unsigned char packmanRight_bits[] = {
   0x30, 0x00, 0xfc, 0x00, 0x7e, 0x00, 0x3e, 0x00, 0x1f, 0x00, 0x1f, 0x00,
   0x3e, 0x00, 0x7e, 0x00, 0xfc, 0x00, 0x30, 0x00 };
