#define packmanUp_width 10
#define packmanUp_height 10
static unsigned char packmanUp_bits[] = {
   0x00, 0x00, 0x00, 0x00, 0x02, 0x01, 0x86, 0x01, 0xcf, 0x03, 0xff, 0x03,
   0xfe, 0x01, 0xfe, 0x01, 0xfc, 0x00, 0x30, 0x00 };
