#define packmanDown_width 10
#define packmanDown_height 10
static unsigned char packmanDown_bits[] = {
   0x30, 0x00, 0xfc, 0x00, 0xfe, 0x01, 0xfe, 0x01, 0xff, 0x03, 0xcf, 0x03,
   0x86, 0x01, 0x02, 0x01, 0x00, 0x00, 0x00, 0x00 };
