#define packmanLeft_width 10
#define packmanLeft_height 10
static unsigned char packmanLeft_bits[] = {
   0x30, 0x00, 0xfc, 0x00, 0xf8, 0x01, 0xf0, 0x01, 0xe0, 0x03, 0xe0, 0x03,
   0xf0, 0x01, 0xf8, 0x01, 0xfc, 0x00, 0x30, 0x00 };
